<?xml version="1.0" encoding="UTF-8" standalone="no"?>
<svg
   width="32"
   height="32"
   viewBox="0 0 32 32"
   fill="none"
   version="1.1"
   id="svg1"
   sodipodi:docname="arrow-down.svg"
   inkscape:version="1.4 (86a8ad7, 2024-10-11)"
   xmlns:inkscape="http://www.inkscape.org/namespaces/inkscape"
   xmlns:sodipodi="http://sodipodi.sourceforge.net/DTD/sodipodi-0.dtd"
   xmlns="http://www.w3.org/2000/svg"
   xmlns:svg="http://www.w3.org/2000/svg">
  <defs
     id="defs1" />
  <sodipodi:namedview
     id="namedview1"
     pagecolor="#ffffff"
     bordercolor="#000000"
     borderopacity="0.25"
     inkscape:showpageshadow="2"
     inkscape:pageopacity="0.0"
     inkscape:pagecheckerboard="0"
     inkscape:deskcolor="#d1d1d1"
     inkscape:zoom="22.96875"
     inkscape:cx="16.021769"
     inkscape:cy="16.021769"
     inkscape:window-width="1920"
     inkscape:window-height="974"
     inkscape:window-x="-11"
     inkscape:window-y="-11"
     inkscape:window-maximized="1"
     inkscape:current-layer="svg1" />
  <path
     d="M8 12L16 20L24 12"
     stroke="#1F3584"
     stroke-width="2"
     stroke-linecap="round"
     stroke-linejoin="round"
     id="path1" />
  <path
     style="fill:#008000;stroke-width:0.0435374"
     d="M 15.586395,20.876791 C 15.334119,20.751623 7.1883015,12.594527 7.0982636,12.376909 6.8455939,11.766214 7.3242879,11.036735 7.9777037,11.036735 c 0.1275426,0 0.3047359,0.03006 0.3937627,0.06681 0.1138961,0.04701 1.2682761,1.172743 3.8952006,3.798545 L 16,18.633824 19.733333,14.902086 c 2.626924,-2.625802 3.781304,-3.751537 3.895201,-3.798545 0.08903,-0.03674 0.26622,-0.06681 0.393762,-0.06681 0.653416,0 1.13211,0.729479 0.87944,1.340174 -0.09204,0.222471 -8.237779,8.377093 -8.490992,8.500257 -0.23419,0.113911 -0.594337,0.113747 -0.824349,-3.75e-4 z"
     id="path2" />
  <path
     style="fill:#008000;stroke-width:0.0435374"
     d="M 15.516736,20.783152 C 15.257005,20.597979 7.3458431,12.673795 7.1883867,12.441093 6.9613221,12.10552 7.0430758,11.639764 7.3866611,11.311514 c 0.187459,-0.179093 0.3506782,-0.239285 0.6414831,-0.236569 0.1800564,0.0017 0.2766868,0.02976 0.4136054,0.12017 0.098262,0.06489 1.8390664,1.773446 3.8684544,3.796798 L 16,18.670736 19.689796,14.991913 c 2.029388,-2.023352 3.770192,-3.731911 3.868454,-3.796798 0.136919,-0.09041 0.233549,-0.118488 0.413606,-0.12017 0.290805,-0.0027 0.454024,0.05748 0.641483,0.236569 0.341708,0.326457 0.423005,0.796989 0.195817,1.133359 -0.155058,0.229576 -8.068133,8.154364 -8.325892,8.338216 C 16.31432,20.903592 16.25725,20.919728 16,20.919728 c -0.257202,0 -0.314351,-0.01615 -0.483264,-0.136576 z"
     id="path3" />
  <path
     style="fill:#cccccc;stroke-width:0.0435374;fill-opacity:1"
     d="M 15.516736,20.783327 C 15.257145,20.598491 7.3462108,12.674094 7.1879679,12.440386 6.9591161,12.102395 7.0400321,11.642672 7.3866611,11.311514 c 0.079921,-0.07636 0.2040872,-0.161312 0.2759239,-0.188795 0.1880129,-0.07193 0.5624768,-0.05776 0.7274045,0.02753 0.077949,0.04031 1.8220485,1.748882 3.8757765,3.796828 l 3.73405,3.72354 3.735138,-3.724007 c 2.054326,-2.048204 3.798508,-3.756777 3.87596,-3.796829 0.164146,-0.08488 0.538881,-0.09884 0.726501,-0.02707 0.07184,0.02748 0.196002,0.11244 0.275924,0.188795 0.343471,0.328141 0.425292,0.793855 0.198456,1.129579 -0.157299,0.232809 -8.068929,8.157499 -8.328531,8.34228 C 16.314461,20.903517 16.257035,20.91972 16,20.91972 c -0.257071,0 -0.314438,-0.01619 -0.483264,-0.136401 z"
     id="path4" />
  <path
     style="fill:#cccccc;fill-opacity:1;stroke-width:0.0435374"
     d=""
     id="path5" />
  <path
     style="fill:#cccccc;fill-opacity:1;stroke-width:0.0435374"
     d="m 15.818714,20.876328 c -0.08774,-0.01581 -0.215082,-0.06452 -0.282994,-0.10824 C 15.376214,20.665403 7.5047781,12.779814 7.2867324,12.504269 7.0915157,12.257573 7.0447435,12.061598 7.1183438,11.798724 c 0.062329,-0.222618 0.2962113,-0.514992 0.4941893,-0.617781 0.223614,-0.1161 0.5982916,-0.09485 0.8111278,0.04599 0.097771,0.0647 1.8423211,1.775025 3.8767771,3.800718 l 3.699012,3.683079 3.704261,-3.686189 c 2.037344,-2.027403 3.782141,-3.737727 3.877328,-3.800718 0.205634,-0.136083 0.585925,-0.157776 0.799913,-0.04563 0.274751,0.143991 0.541153,0.553586 0.543262,0.835268 0.0024,0.314506 -0.09733,0.421943 -4.281509,4.614328 -2.254168,2.258592 -4.157263,4.135687 -4.2291,4.171322 -0.169278,0.08397 -0.394904,0.113258 -0.594891,0.07721 z"
     id="path6" />
</svg>
