<?xml version="1.0" encoding="UTF-8" standalone="no"?>
<svg
   width="45"
   height="50"
   viewBox="0 0 45 50"
   fill="none"
   version="1.1"
   id="svg1"
   sodipodi:docname="play.svg"
   inkscape:version="1.4 (86a8ad7, 2024-10-11)"
   xmlns:inkscape="http://www.inkscape.org/namespaces/inkscape"
   xmlns:sodipodi="http://sodipodi.sourceforge.net/DTD/sodipodi-0.dtd"
   xmlns="http://www.w3.org/2000/svg"
   xmlns:svg="http://www.w3.org/2000/svg">
  <defs
     id="defs1" />
  <sodipodi:namedview
     id="namedview1"
     pagecolor="#ffffff"
     bordercolor="#000000"
     borderopacity="0.25"
     inkscape:showpageshadow="2"
     inkscape:pageopacity="0.0"
     inkscape:pagecheckerboard="0"
     inkscape:deskcolor="#d1d1d1"
     showgrid="false"
     inkscape:zoom="14.7"
     inkscape:cx="22.517007"
     inkscape:cy="24.965986"
     inkscape:window-width="1920"
     inkscape:window-height="974"
     inkscape:window-x="-11"
     inkscape:window-y="-11"
     inkscape:window-maximized="1"
     inkscape:current-layer="svg1" />
  <path
     d="M42.3209 28.6319L7.56914 48.4718C4.61861 50.1562 0.836864 48.1189 0.836864 44.7299V5.05028C0.836864 1.66131 4.61861 -0.376037 7.56914 1.30842L42.3209 21.1482C45.2594 22.8258 45.2594 26.9543 42.3209 28.6319Z"
     fill="#222220"
     id="path1" />
  <path
     style="fill:#0cc729;stroke-width:0.0680272;fill-opacity:1"
     d="M 4.1583696,48.883368 C 2.6055807,48.451763 1.4918102,47.360436 0.99389569,45.782663 0.89716041,45.476133 0.88456678,43.420566 0.86761388,25.170609 0.85129888,7.6073558 0.86210928,4.8218186 0.94852906,4.321035 1.1722706,3.0245017 2.0531435,1.8481356 3.2335952,1.2694321 4.0307485,0.87863646 4.5515527,0.75507706 5.3741497,0.76159129 c 1.1256455,0.008914 1.3091691,0.0908234 5.2779393,2.35562141 1.923664,1.097748 9.926142,5.6643798 17.783285,10.1480713 l 14.285714,8.152165 0.521317,0.524611 c 0.407578,0.410154 0.580279,0.648837 0.791568,1.093996 0.148639,0.313162 0.305743,0.71857 0.349123,0.900906 0.111033,0.466709 0.096,1.498017 -0.02889,1.981405 -0.212881,0.823993 -0.772045,1.71018 -1.407784,2.231121 -0.164629,0.134901 -4.017372,2.368914 -8.561651,4.964472 -4.54428,2.595558 -12.514493,7.14767 -17.711587,10.115803 -5.87421,3.354844 -9.6318919,5.461361 -9.9319733,5.567761 -0.6665201,0.236327 -1.8946051,0.277144 -2.5828451,0.08584 z"
     id="path2" />
</svg>
