<svg aria-hidden="true" style="position: absolute; width: 0; height: 0; overflow: hidden;" version="1.1" xmlns="http://www.w3.org/2000/svg" xmlns:xlink="http://www.w3.org/1999/xlink">
<defs>

<symbol id="buttonburgerclose" viewBox="0 0 24 24">
<path fill="#939ABF" style="fill: var(--color1, #939ABF)" d="m4.21 4.387.083-.094a1 1 0 0 1 1.32-.083l.094.083L12 10.585l6.293-6.292a1 1 0 1 1 1.414 1.414L13.415 12l6.292 6.293a1 1 0 0 1 .083 1.32l-.083.094a1 1 0 0 1-1.32.083l-.094-.083L12 13.415l-6.293 6.292a1 1 0 0 1-1.414-1.414L10.585 12 4.293 5.707a1 1 0 0 1-.083-1.32l.083-.094z"></path>
</symbol>

<symbol id="burger" viewBox="0 0 24 24">
<path fill="#939ABF" style="fill: var(--color1, #939ABF)" d="M3 7a1 1 0 0 1 1-1h14a1 1 0 1 1 0 2H4a1 1 0 0 1-1-1m0 5a1 1 0 0 1 1-1h16a1 1 0 1 1 0 2H4a1 1 0 0 1-1-1m1 4a1 1 0 1 0 0 2h10a1 1 0 1 0 0-2z"></path>
</symbol>


<symbol id="heart" viewBox="0 0 24 24">
<path fill="#fff" d="m12.82 5.58-.82.822-.824-.824a5.375 5.375 0 1 0-7.601 7.602l7.895 7.895a.75.75 0 0 0 1.06 0l7.902-7.897a5.376 5.376 0 0 0-.001-7.599 5.38 5.38 0 0 0-7.611 0m6.548 6.54L12 19.485 4.635 12.12a3.875 3.875 0 1 1 5.48-5.48l1.358 1.357a.75.75 0 0 0 1.073-.012L13.88 6.64a3.88 3.88 0 0 1 5.487 5.48"></path>
</symbol>

<!-- <symbol id="scrollup" viewBox="0 0 24 24">
<path fill="#fff" d="M4.284 10.296A1 1 0 0 0 5.709 11.7L11 6.33V20a1 1 0 1 0 2 0V6.336l5.285 5.364a1 1 0 0 0 1.425-1.404l-6.823-6.924a1.25 1.25 0 0 0-1.78 0z"></path>
</symbol> -->



<!-- <symbol id="play" viewBox="0 0 24 24">
<path fill="#0CC729" d="M5 5.274c0-1.707 1.826-2.792 3.325-1.977l12.362 6.727c1.566.852 1.566 3.1 0 3.952L8.325 20.702C6.826 21.518 5 20.432 5 18.726z" ></path>
</symbol> -->



</defs>
</svg>
